<svg xmlns="http://www.w3.org/2000/svg" version="1.1" width="1080" height="1250" viewBox="0 0 1080 1280">
    <g transform="matrix(22.0548 0 0 21.2836 541.3333 543.8501)">
        <g transform="matrix(0.3333 0 0 0.3333 0 0)">
            <linearGradient id="SVGID_indigoGradient_0" gradientUnits="objectBoundingBox" gradientTransform="matrix(1 0 0 1 0 0)" x1="0"
                            y1="0"
                            x2="1" y2="1">
                <stop offset="0%" style="stop-color:rgb(129,140,248);stop-opacity: 1"/>
                <stop offset="100%" style="stop-color:rgb(99,102,241);stop-opacity: 1"/>
            </linearGradient>
            <path style="stroke: url(#SVGID_indigoGradient_0);" fill="none" stroke-linejoin="round" stroke-width="6"
                  transform="translate(-160, -105)" d="M 160 32 L 230 72 L 230 138 L 160 178 L 90 138 L 90 72 Z" stroke-linecap="round"/>
        </g>
        <g transform="matrix(0.3333 0 0 0.3333 0 0)">
            <path style="stroke: rgb(99,102,241);" fill="none" stroke-linejoin="round" stroke-width="5" transform="translate(-160, -105)"
                  d="M 160 44 L 218 78 L 218 132 L 160 166 L 102 132 L 102 78 Z" stroke-linecap="round"/>
        </g>
        <g transform="matrix(0.3333 0 0 0.3333 -10.6667 0)">
            <path style="stroke: rgb(129,140,248);" fill="none" stroke-linejoin="round" stroke-width="6" transform="translate(-128, -105)"
                  d="M 138 92 L 118 105 L 138 118" stroke-linecap="round"/>
        </g>
        <g transform="matrix(0.3333 0 0 0.3333 0 0)">
            <path style="stroke: rgb(165,180,252);" fill="none" stroke-linejoin="round" stroke-width="6" transform="translate(-160, -105)"
                  d="M 166 84 L 154 126" stroke-linecap="round"/>
        </g>
        <g transform="matrix(0.3333 0 0 0.3333 10.6667 0)">
            <path style="stroke: rgb(129,140,248);" fill="none" stroke-linejoin="round" stroke-width="6" transform="translate(-192, -105)"
                  d="M 182 92 L 202 105 L 182 118" stroke-linecap="round"/>
        </g>
    </g>
    <text x="550" y="1200" text-anchor="middle" fill="#818CF8" font-family="Inter, Arial, sans-serif" font-size="100" letter-spacing="10"
          font-weight="500">
        DEVRUNNER
    </text>
</svg>